{"title":"Far Cry (2008) 1080Px264 (DTS - 5.1 DD)(NL SUBS) 2Lions-Team","uid":5834177,"size":6574585871,"categoryP":"video","categoryS":"hd___movies","magnet":"?xt=urn:btih:d20860e6562fb601ad0fe52bf9968d4f42312a4d&amp;dn=Far+Cry+%282008%29+1080Px264+%28DTS+-+5.1+DD%29%28NL+SUBS%29+2Lions-Team&amp;tr=udp%3A%2F%2Ftracker.openbittorrent.com%3A80&amp;tr=udp%3A%2F%2Fopen.demonii.com%3A1337&amp;tr=udp%3A%2F%2Ftracker.coppersurfer.tk%3A6969&amp;tr=udp%3A%2F%2Fexodus.desync.com%3A6969","seeders":0,"leechers":0,"uploader":"Pioen","files":-1,"time":1284660593,"description":" Far Cry (2008) 1080P       \n\n\n\nDuitsland / Canada\nActie / Avontuur\n94 minuten\n\ngeregisseerd door Uwe Boll\nmet Til Schweiger, Emmanuelle Vaugier en Udo Kier\n\nJack Carver verdient zijn brood als kapitein op een charterboot. Op een dag vervoert hij de beeldschone journaliste Val. Zij huurt Jack in om haar te begeleiden naar een eiland om haar oom Max te zoeken. Max en Jack hebben vroeger samen in het leger gezeten. Op het eiland is het echter niet pluis. Terwijl Val op het eiland is, wordt de boot van Jack uit het water geschoten. Hij overleeft en gaat op onderzoek uit.\n\n\nEnglish\n\nAn adaptation of the first-person-shooter video game where Jack Carver, a retired Special Forces Officer who now is transport for hire, by people and cargo. On one particular trip Jack ferries a photographer 'Val' who wants to photograph old Japanese WW2 bases on some of the Micronesian islands. He goes through hell when his boat is attacked and destroyed by an unknown party while Val is away. Surviving by the skin of his teeth, he must now find Val and uncover what is truly happening on these dark and mysterious islands\n\n\nSpotinformatie \nCategorie : Beeld \nFormaat : x264HD \nBron : Retail\n \nOndertitels : Nederlands (instelbaar)\n---Compressie: x264 MKV\n---Audio: Engels 5.1 DTS &amp; 5.1 DD\n---Subs: Nederlands\n---Bewerking: Bradje\n\nFormat                           : Matroska\nFile size                        : 6.12 GiB\nDuration                         : 1h 34mn\nOverall bit rate                 : 9 256 Kbps\nEncoded date                     : UTC 2010-09-15 16:13:31\nWriting application              : mkvmerge v3.3.0 ('Language') built on Mar 24 2010 14:59:24\nWriting library                  : libebml v0.8.0 + libmatroska v0.9.0\n\nVideo\nID                               : 1\nFormat                           : AVC\nFormat/Info                      : Advanced Video Codec\nFormat profile                   : &lt;a class=&quot;__cf_email__&quot; href=&quot;/cdn-cgi/l/email-protection&quot; data-cfemail=&quot;f5bd9c929db5b9c1dbc4&quot;&gt;[email&amp;#160;protected]&lt;/a&gt;&lt;script data-cfhash='f9e31' type=&quot;text/javascript&quot;&gt;\n/* &lt;![CDATA[ */!function(){try{var t=&quot;currentScript&quot;in document?document.currentScript:function(){for(var t=document.getElementsByTagName(&quot;script&quot;),e=t.length;e--;)if(t[e].getAttribute(&quot;data-cfhash&quot;))return t[e]}();if(t&amp;&amp;t.previousSibling){var e,r,n,i,c=t.previousSibling,a=c.getAttribute(&quot;data-cfemail&quot;);if(a){for(e=&quot;&quot;,r=parseInt(a.substr(0,2),16),n=2;a.length-n;n+=2)i=parseInt(a.substr(n,2),16)^r,e+=String.fromCharCode(i);e=document.createTextNode(e),c.parentNode.replaceChild(e,c)}t.parentNode.removeChild(t);}}catch(u){}}()/* ]]&gt; */&lt;/script&gt;\nFormat settings, CABAC           : Yes\nFormat settings, ReFrames        : 5 frames\nMuxing mode                      : Container profile=&lt;a class=&quot;__cf_email__&quot; href=&quot;/cdn-cgi/l/email-protection&quot; data-cfemail=&quot;e8bd868386879f86a8dcc6d9&quot;&gt;[email&amp;#160;protected]&lt;/a&gt;&lt;script data-cfhash='f9e31' type=&quot;text/javascript&quot;&gt;\n/* &lt;![CDATA[ */!function(){try{var t=&quot;currentScript&quot;in document?document.currentScript:function(){for(var t=document.getElementsByTagName(&quot;script&quot;),e=t.length;e--;)if(t[e].getAttribute(&quot;data-cfhash&quot;))return t[e]}();if(t&amp;&amp;t.previousSibling){var e,r,n,i,c=t.previousSibling,a=c.getAttribute(&quot;data-cfemail&quot;);if(a){for(e=&quot;&quot;,r=parseInt(a.substr(0,2),16),n=2;a.length-n;n+=2)i=parseInt(a.substr(n,2),16)^r,e+=String.fromCharCode(i);e=document.createTextNode(e),c.parentNode.replaceChild(e,c)}t.parentNode.removeChild(t);}}catch(u){}}()/* ]]&gt; */&lt;/script&gt;\nCodec ID                         : V_MPEG4/ISO/AVC\nDuration                         : 1h 34mn\nBit rate                         : 6 922 Kbps\nWidth                            : 1 920 pixels\nHeight                           : 800 pixels\nDisplay aspect ratio             : 2.40:1\nFrame rate                       : 23.976 fps\nColor space                      : YUV\nChroma subsampling               : 4:2:0\nBit depth                        : 8 bits\nScan type                        : Progressive\nBits/(Pixel*Frame)               : 0.188\nStream size                      : 4.58 GiB (75%)\nTitle                            : x264\nWriting library                  : x264 core 67 r1134 b8808bf\nEncoding settings                : cabac=1 / ref=5 / deblock=1:0:0 / analyse=0x3:0x113 / me=umh / subme=7 / psy_rd=1.0:0.0 / mixed_ref=1 / me_range=16 / chroma_me=1 / trellis=1 / 8x8dct=1 / cqm=0 / deadzone=21,11 / chroma_qp_offset=-2 / threads=6 / nr=0 / decimate=1 / mbaff=0 / bframes=3 / b_pyramid=1 / b_adapt=1 / b_bias=0 / direct=3 / wpredb=1 / keyint=250 / keyint_min=25 / scenecut=40 / rc=crf / crf=22.0 / qcomp=0.60 / qpmin=10 / qpmax=51 / qpstep=4 / ip_ratio=1.40 / pb_ratio=1.30 / aq=1:1.00\nLanguage                         : English\n\nAudio #1\nID                               : 2\nFormat                           : AC-3\nFormat/Info                      : Audio Coding 3\nMode extension                   : CM (complete main)\nCodec ID                         : A_AC3\nDuration                         : 1h 34mn\nBit rate mode                    : Constant\nBit rate                         : 640 Kbps\nChannel(s)                       : 6 channels\nChannel positions                : Front: L C R, Side: L R, LFE\nSampling rate                    : 48.0 KHz\nBit depth                        : 16 bits\nStream size                      : 433 MiB (7%)\nTitle                            : AC3\nLanguage                         : English\n\nAudio #2\nID                               : 3\nFormat                           : DTS\nFormat/Info                      : Digital Theater Systems\nCodec ID                         : A_DTS\nDuration                         : 1h 34mn\nBit rate mode                    : Constant\nBit rate                         : 1 510 Kbps\nChannel(s)                       : 6 channels\nChannel positions                : Front: L C R, Side: L R, LFE\nSampling rate                    : 48.0 KHz\nBit depth                        : 24 bits\nVideo delay                      : 11ms\nStream size                      : 1 023 MiB (16%)\nTitle                            : DTS\nLanguage                         : English\n\nText\nID                               : 4\nFormat                           : UTF-8\nCodec ID                         : S_TEXT/UTF8\nCodec ID/Info                    : UTF-8 Plain Text\nTitle                            : Subtitles\nLanguage                         : Dutch\n\nMenu\n00:00:00.000                     : en:Video Start\n00:05:00.000                     : en:Chapter 1 - 00 Hr 05 Min\n00:10:00.000                     : en:Chapter 2 - 00 Hr 10 Min\n00:15:00.000                     : en:Chapter 3 - 00 Hr 15 Min\n00:20:00.000                     : en:Chapter 4 - 00 Hr 20 Min\n00:25:00.000                     : en:Chapter 5 - 00 Hr 25 Min\n00:30:00.000                     : en:Chapter 6 - 00 Hr 30 Min\n00:35:00.000                     : en:Chapter 7 - 00 Hr 35 Min\n00:40:00.000                     : en:Chapter 8 - 00 Hr 40 Min\n00:45:00.000                     : en:Chapter 9 - 00 Hr 45 Min\n00:50:00.000                     : en:Chapter 10 - 00 Hr 50 Min\n00:55:00.000                     : en:Chapter 11 - 00 Hr 55 Min\n01:00:00.000                     : en:Chapter 12 - 01 Hr 00 Min\n01:05:00.000                     : en:Chapter 13 - 01 Hr 05 Min\n01:10:00.000                     : en:Chapter 14 - 01 Hr 10 Min\n01:15:00.000                     : en:Chapter 15 - 01 Hr 15 Min\n01:20:00.000                     : en:Chapter 16 - 01 Hr 20 Min\n01:25:00.000                     : en:Chapter 17 - 01 Hr 25 Min\n01:30:00.000                     : en:Chapter 18 - 01 Hr 30 Min\n\n \nGenre : Actie\nAvontuur\n \nWeblink : &lt;a href=&quot; http://www.moviemeter.nl/film/46780&quot; rel=&quot;nofollow&quot; target=&quot;_NEW&quot;&gt; http://www.moviemeter.nl/film/46780&lt;/a&gt; \nWeblink : &lt;a href=&quot; http://www.imdb.com/title/tt0400426&quot; rel=&quot;nofollow&quot; target=&quot;_NEW&quot;&gt; http://www.imdb.com/title/tt0400426&lt;/a&gt;\n\n******************************************\n\nBrought to you by \n\n\n2Lions Team\n\nmeer zien??\nKom dan eens kijken op ons forum \n                       &lt;a href=&quot;\nhttp://www.2lions-site.nl&quot; rel=&quot;nofollow&quot; target=&quot;_NEW&quot;&gt;\nhttp://www.2lions-site.nl&lt;/a&gt;\n\n\n2Lions the site to be for all your Dutch MOVIES and more\n\n******************************************\n\n\nDON T HIT AND RUN Niet gelijk afhaken als de FILM binnen is blijf seeden. \n\nDon`t quit after you finished the download, but keep seeding\n\n\nThere are fake torrents from uploaders who use our team name.\nThose are not ours, or members from our team.\nWe 2Lions-Team are not responsible for the fake posts on our name\n\nWij 2Lions-Team zijn niet verantwoordelijk voor die zieke FAKE posten die op onze naam worden gedaan\n\n\n\nPlease check our site !!!\n                      &lt;a href=&quot;\nhttp://www.2lions-site.nl&quot; rel=&quot;nofollow&quot; target=&quot;_NEW&quot;&gt;\nhttp://www.2lions-site.nl&lt;/a&gt; \n \n\n  \n \n\n \n \n \n","torrent":{"xt":"urn:btih:d20860e6562fb601ad0fe52bf9968d4f42312a4d","amp;dn":"Far+Cry+%282008%29+1080Px264+%28DTS+-+5.1+DD%29%28NL+SUBS%29+2Lions-Team","amp;tr":["udp%3A%2F%2Ftracker.openbittorrent.com%3A80","udp%3A%2F%2Fopen.demonii.com%3A1337","udp%3A%2F%2Ftracker.coppersurfer.tk%3A6969","udp%3A%2F%2Fexodus.desync.com%3A6969"],"infoHash":"d20860e6562fb601ad0fe52bf9968d4f42312a4d","infoHashBuffer":{"type":"Buffer","data":[210,8,96,230,86,47,182,1,173,15,229,43,249,150,141,79,66,49,42,77]},"announce":[],"urlList":[]}}